<?xml version="1.0" encoding="UTF-8"?>
<svg id="Ebene_2" data-name="Ebene 2" xmlns="http://www.w3.org/2000/svg" viewBox="0 0 1080 1080">
  <defs>
    <style>
      .cls-1 {
        fill: none;
      }

      .cls-2 {
        fill: #1d1d21;
      }
    </style>
  </defs>
  <g id="Ebene_1-2" data-name="Ebene 1">
    <g>
      <g>
        <path class="cls-2" d="M269.62,755.66h-12.32l-1.7-11.01c-1.63-1.63-3.68-2.91-6.16-3.86-2.48-.95-5.4-1.42-8.77-1.42-7.19,0-12.73,2.61-16.61,7.83-3.88,5.22-5.82,12.04-5.82,20.44v2.89c0,8.4,1.93,15.24,5.79,20.5,3.86,5.26,9.31,7.89,16.35,7.89,3.25,0,6.24-.47,8.94-1.42,2.71-.95,4.8-2.23,6.27-3.86l1.7-11.01h12.32v16.35c-3.33,3.86-7.58,6.94-12.75,9.23-5.17,2.29-10.95,3.43-17.34,3.43-11.09,0-20.17-3.84-27.25-11.53-7.08-7.68-10.62-17.54-10.62-29.58v-2.78c0-12,3.52-21.86,10.56-29.58,7.04-7.72,16.14-11.58,27.31-11.58,6.4,0,12.17,1.16,17.32,3.49,5.15,2.33,9.4,5.4,12.77,9.23v16.35Z"/>
        <path class="cls-2" d="M293.24,800.51l5.9-.85,25.15-71.88h16.98l24.98,71.88,5.9.85v9.94h-28.16v-9.94l5.73-1.02-3.63-11.35h-26.8l-3.63,11.35,5.73,1.02v9.94h-28.16v-9.94ZM323.22,775.93h18.96l-9.31-29.12h-.34l-9.31,29.12Z"/>
        <path class="cls-2" d="M394.47,810.44v-9.94l8.8-1.7v-59.33l-8.8-1.7v-9.99h34.23v9.99l-8.86,1.7v58.25h23.33l.79-10.39h12.66v23.11h-62.17Z"/>
        <path class="cls-2" d="M479.45,810.44v-9.94l8.8-1.7v-59.33l-8.8-1.7v-9.99h34.23v9.99l-8.86,1.7v58.25h23.33l.79-10.39h12.66v23.11h-62.17Z"/>
        <path class="cls-2" d="M564.38,737.77v-9.99h34.23v9.99l-8.86,1.7v59.33l8.86,1.7v9.94h-34.23v-9.94l8.86-1.7v-59.33l-8.86-1.7Z"/>
        <path class="cls-2" d="M697.34,769.74c0,12.11-3.46,22.12-10.39,30.03-6.93,7.91-15.99,11.87-27.19,11.87s-20.18-3.96-27.05-11.87c-6.87-7.91-10.3-17.92-10.3-30.03v-1.25c0-12.04,3.42-22.03,10.28-29.98,6.85-7.95,15.86-11.92,27.02-11.92s20.28,3.97,27.22,11.92c6.94,7.95,10.42,17.94,10.42,29.98v1.25ZM680.82,768.37c0-8.55-1.78-15.5-5.34-20.84-3.56-5.34-8.82-8-15.78-8s-12.16,2.65-15.58,7.95c-3.43,5.3-5.14,12.26-5.14,20.89v1.36c0,8.71,1.73,15.72,5.19,21.03,3.46,5.32,8.66,7.98,15.58,7.98s12.26-2.66,15.78-7.98c3.52-5.32,5.28-12.33,5.28-21.03v-1.36Z"/>
        <path class="cls-2" d="M760.19,727.78c9.46,0,16.93,2.43,22.4,7.3s8.2,11.23,8.2,19.1-2.73,14.27-8.2,19.08-12.94,7.21-22.4,7.21h-13.97v18.34l8.86,1.7v9.94h-34.23v-9.94l8.8-1.7v-59.33l-8.8-1.7v-9.99h39.34ZM746.22,767.69h13.97c4.62,0,8.11-1.26,10.47-3.78,2.37-2.52,3.55-5.72,3.55-9.62s-1.18-7.26-3.55-9.85c-2.37-2.59-5.86-3.89-10.47-3.89h-13.97v27.14Z"/>
        <path class="cls-2" d="M866.3,774.11h-27.99v23.62h26.68l.74-9.88h12.6v22.6h-65.4v-9.94l8.8-1.7v-59.33l-8.8-1.7v-9.99h65.29v22.65h-12.72l-.74-9.88h-26.46v20.78h27.99v12.77Z"/>
      </g>
      <g>
        <path class="cls-2" d="M696.15,276.65h-61.88c-9.31,0-16.85,7.55-16.85,16.85,0,0-.11,52.87-.11,46.69,0-38.96-31.59-70.54-70.54-70.54s-70.55,31.59-70.55,70.54v77.53l-83.69,62.69c-56.41,43.06-25.96,133.13,45,133.13h16.82c7.06-51.91,23.3-116.12,56.23-155h76.6c33.36,39.39,47.54,102.75,54.45,155h23.7c26.33,0,47.68-21.35,47.68-47.68v-272.36c0-9.3-7.55-16.85-16.85-16.85M519.79,314.87h58.15v39.28c0,12.69-10.29,22.97-22.98,22.97h-12.19c-12.69,0-22.97-10.28-22.97-22.97v-39.28ZM506.01,428.56l26.37-50.37,15.67,50.37h-42.04ZM549.33,428.56l15.78-50.74,26.25,50.74h-42.03ZM630.21,298.83h69.99v86.24h-69.99v-86.24Z"/>
        <path class="cls-2" d="M605.1,613.54c-37.35-26.87-67.89-97.06-92.63-155v155h92.63Z"/>
      </g>
    </g>
    <rect class="cls-1" width="1080" height="1080"/>
  </g>
</svg>